<svg width="459" height="72" viewBox="0 0 459 72" fill="none" xmlns="http://www.w3.org/2000/svg">
<rect y="2.58099" width="3" height="67" fill="#00A8E8"/>
<rect x="8" y="2.58099" width="6" height="67" fill="#FFD60A"/>
<rect x="19" y="2.58099" width="12" height="67" fill="#FF6B35"/>
<rect x="36" y="2.58099" width="24" height="67" fill="#06FFA5"/>
<path d="M65 69.6807V2.48067H89.16V69.6807H65Z" fill="#1A1A1A"/>
<path d="M94.4375 69.6807V2.48067H122.118L141.478 35.8407H143.717V2.48067H167.318V69.6807H140.198L120.198 36.3207H118.038V69.6807H94.4375Z" fill="#1A1A1A"/>
<path d="M207.251 2.48067C235.011 2.48067 244.531 16.6407 244.531 36.0807C244.531 55.4407 235.011 69.6807 207.251 69.6807H172.531V2.48067H207.251ZM207.251 49.4407C214.371 49.4407 220.211 46.0807 220.211 36.0807C220.211 26.0007 214.371 22.7207 207.251 22.7207H196.851L196.771 49.4407H207.251Z" fill="#1A1A1A"/>
<path d="M248.938 69.6807V2.48067H310.777V21.7607H273.098V28.3207H309.338V43.8407H273.098V50.3207H310.777V69.6807H248.938Z" fill="#1A1A1A"/>
<path d="M391.342 69.6807H366.703L350.062 47.0407H348.543L340.142 56.0807V69.6807H316.062V2.48067H340.142V27.2807H341.742L363.823 2.48067H390.703L363.582 32.4007L391.342 69.6807Z" fill="#1A1A1A"/>
<path d="M423.408 71.9207C399.328 71.8407 388.367 64.6407 389.087 46.6407H410.767C410.927 50.6407 414.288 52.9607 423.408 53.1207C431.248 53.2007 434.608 51.1207 434.608 48.7207C434.608 47.4407 434.287 45.2007 428.207 44.4007L419.408 43.0407C406.767 41.0407 390.608 40.1607 390.608 22.0807C390.608 8.56067 401.407 0.240662 423.647 0.240662C443.487 0.240662 457.328 5.36066 456.768 25.3607H435.168C434.448 21.4407 431.007 19.0407 423.087 19.0407C416.287 19.0407 413.807 20.9607 413.807 23.3607C413.807 24.4807 414.367 26.7207 418.927 27.4407L425.967 28.5607C439.488 30.8007 458.688 30.5607 458.688 49.7607C458.688 64.8007 447.168 72.0007 423.408 71.9207Z" fill="#1A1A1A"/>
</svg>
