<svg width="459" height="73" viewBox="0 0 459 73" fill="none" xmlns="http://www.w3.org/2000/svg">
<rect y="2.90033" width="3" height="67" fill="#00A8E8"/>
<rect x="8" y="2.90033" width="6" height="67" fill="#FFD60A"/>
<rect x="19" y="2.90033" width="12" height="67" fill="#FF6B35"/>
<rect x="36" y="2.90033" width="24" height="67" fill="#06FFA5"/>
<path d="M65 70V2.8H89.16V70H65Z" fill="#FFF5E1"/>
<path d="M94.4375 70V2.8H122.118L141.478 36.16H143.717V2.8H167.318V70H140.198L120.198 36.64H118.038V70H94.4375Z" fill="#FFF5E1"/>
<path d="M207.251 2.8C235.011 2.8 244.531 16.96 244.531 36.4C244.531 55.76 235.011 70 207.251 70H172.531V2.8H207.251ZM207.251 49.76C214.371 49.76 220.211 46.4 220.211 36.4C220.211 26.32 214.371 23.04 207.251 23.04H196.851L196.771 49.76H207.251Z" fill="#FFF5E1"/>
<path d="M248.938 70V2.8H310.777V22.08H273.098V28.64H309.338V44.16H273.098V50.64H310.777V70H248.938Z" fill="#FFF5E1"/>
<path d="M391.342 70H366.703L350.062 47.36H348.543L340.142 56.4V70H316.062V2.8H340.142V27.6H341.742L363.823 2.8H390.703L363.582 32.72L391.342 70Z" fill="#FFF5E1"/>
<path d="M423.408 72.24C399.328 72.16 388.367 64.96 389.087 46.96H410.767C410.927 50.96 414.288 53.28 423.408 53.44C431.248 53.52 434.608 51.44 434.608 49.04C434.608 47.76 434.287 45.52 428.207 44.72L419.408 43.36C406.767 41.36 390.608 40.48 390.608 22.4C390.608 8.88 401.407 0.559998 423.647 0.559998C443.487 0.559998 457.328 5.68 456.768 25.68H435.168C434.448 21.76 431.007 19.36 423.087 19.36C416.287 19.36 413.807 21.28 413.807 23.68C413.807 24.8 414.367 27.04 418.927 27.76L425.967 28.88C439.488 31.12 458.688 30.88 458.688 50.08C458.688 65.12 447.168 72.32 423.408 72.24Z" fill="#FFF5E1"/>
</svg>
